<svg xmlns="http://www.w3.org/2000/svg" xmlns:xlink="http://www.w3.org/1999/xlink" width="500" zoomAndPan="magnify" viewBox="0 0 375 374.999991" height="500" preserveAspectRatio="xMidYMid meet" version="1.2"><defs><clipPath id="e27f55852d"><path d="M 14.457031 2.921875 L 360.207031 2.921875 L 360.207031 371.921875 L 14.457031 371.921875 Z M 14.457031 2.921875 "/></clipPath><clipPath id="4709c1fc7f"><path d="M 155.347656 204.210938 L 280.40625 204.210938 L 280.40625 240.402344 L 155.347656 240.402344 Z M 155.347656 204.210938 "/></clipPath><clipPath id="5d68857581"><path d="M 166.035156 230.40625 L 246.691406 230.40625 L 246.691406 328.542969 L 166.035156 328.542969 Z M 166.035156 230.40625 "/></clipPath></defs><g id="a37be1adcb"><g clip-rule="nonzero" clip-path="url(#e27f55852d)"><path style=" stroke:none;fill-rule:nonzero;fill:#c2945f;fill-opacity:1;" d="M 49.925781 104.757812 C 49.195312 105.996094 48.453125 107.238281 47.792969 108.5 C 46.808594 110.429688 46.304688 111.40625 46.300781 111.277344 C 46.800781 110.34375 47.292969 109.425781 47.792969 108.5 C 47.992188 108.101562 48.214844 107.664062 48.457031 107.183594 C 48.71875 106.707031 49 106.191406 49.304688 105.632812 C 49.910156 104.527344 50.605469 103.273438 51.378906 101.867188 C 50.886719 102.847656 50.402344 103.808594 49.925781 104.757812 Z M 360.210938 193.039062 L 360.179688 190.855469 C 360.15625 189.398438 360.136719 187.945312 360.113281 186.492188 C 360.09375 185.765625 360.113281 185.039062 360.054688 184.316406 L 359.914062 182.148438 C 359.285156 170.582031 357.554688 159.199219 354.824219 148.25 C 349.382812 126.320312 339.816406 106.269531 327.996094 89.230469 C 322.078125 80.707031 315.636719 72.878906 308.808594 65.875 C 302.753906 59.671875 296.691406 53.464844 290.734375 47.167969 C 285.21875 41.332031 280.195312 35.027344 274.214844 29.644531 C 267.996094 24.039062 260.640625 19.695312 253.066406 16.1875 C 244.773438 12.34375 235.070312 9.011719 224.109375 6.628906 C 221.367188 6.074219 218.550781 5.5 215.65625 5.035156 C 212.765625 4.613281 209.792969 4.164062 206.757812 3.847656 C 205.226562 3.714844 203.691406 3.578125 202.148438 3.441406 C 200.597656 3.316406 199.03125 3.167969 197.425781 3.132812 C 195.816406 3.082031 194.199219 3.035156 192.578125 2.984375 L 190.113281 2.929688 C 189.292969 2.929688 188.46875 2.953125 187.640625 2.964844 C 187.640625 2.964844 188.453125 3.105469 189.875 3.34375 C 191.296875 3.617188 193.324219 4.039062 195.71875 4.542969 C 196.910156 4.800781 198.199219 5.082031 199.5625 5.375 C 200.898438 5.714844 202.3125 6.074219 203.769531 6.449219 C 205.207031 6.828125 206.695312 7.21875 208.207031 7.617188 C 209.707031 8.035156 211.226562 8.503906 212.730469 8.953125 C 214.226562 9.410156 215.71875 9.867188 217.191406 10.316406 C 218.652344 10.792969 220.082031 11.285156 221.453125 11.753906 C 222.820312 12.226562 224.140625 12.679688 225.394531 13.113281 C 226.632812 13.542969 227.804688 14.007812 228.878906 14.410156 C 231.011719 15.222656 232.789062 15.90625 234.03125 16.378906 C 235.265625 16.882812 235.96875 17.167969 235.96875 17.167969 C 235.96875 17.167969 235.683594 17.078125 235.148438 16.902344 C 234.613281 16.726562 233.828125 16.496094 232.824219 16.203125 C 231.8125 15.90625 230.585938 15.550781 229.179688 15.136719 C 227.769531 14.734375 226.167969 14.25 224.40625 13.8125 C 217.367188 11.902344 207.792969 9.742188 197.710938 8.238281 C 195.191406 7.902344 192.625 7.511719 190.101562 7.253906 C 187.578125 7.003906 185.066406 6.769531 182.609375 6.558594 C 180.164062 6.371094 177.789062 6.289062 175.507812 6.171875 C 174.367188 6.121094 173.253906 6.074219 172.179688 6.03125 C 171.101562 6.027344 170.058594 6.015625 169.058594 6.007812 C 167.039062 6.007812 165.183594 6.007812 163.542969 6.007812 C 161.886719 6.003906 160.457031 6.109375 159.261719 6.144531 C 156.867188 6.257812 155.5 6.320312 155.5 6.320312 C 146.480469 8.152344 137.25 10.597656 128.085938 14.105469 C 118.917969 17.566406 109.710938 21.792969 100.851562 27.152344 C 100.851562 27.152344 103.554688 26.304688 107.527344 25.152344 C 109.542969 24.640625 111.882812 24.078125 114.359375 23.503906 C 115.59375 23.226562 116.867188 22.9375 118.160156 22.644531 C 119.457031 22.414062 120.777344 22.175781 122.097656 21.945312 C 123.398438 21.722656 124.703125 21.503906 125.988281 21.285156 C 127.269531 21.078125 128.511719 20.859375 129.734375 20.734375 C 132.171875 20.445312 134.421875 20.199219 136.332031 20 C 137.289062 19.90625 138.15625 19.804688 138.933594 19.746094 C 139.710938 19.699219 140.386719 19.660156 140.945312 19.628906 C 142.054688 19.5625 142.6875 19.527344 142.6875 19.527344 C 142.6875 19.527344 141.8125 19.644531 140.28125 19.847656 C 138.734375 20.015625 136.574219 20.445312 133.921875 20.917969 C 132.59375 21.167969 131.152344 21.4375 129.628906 21.722656 C 128.101562 22.03125 126.507812 22.4375 124.835938 22.832031 C 123.15625 23.242188 121.417969 23.671875 119.65625 24.109375 C 117.894531 24.589844 116.113281 25.148438 114.3125 25.691406 C 112.515625 26.25 110.695312 26.792969 108.917969 27.394531 C 107.144531 28.054688 105.398438 28.695312 103.710938 29.324219 C 102.015625 29.972656 100.351562 30.570312 98.800781 31.230469 C 97.25 31.917969 95.785156 32.570312 94.433594 33.171875 C 91.726562 34.40625 89.414062 35.414062 87.867188 36.273438 C 86.296875 37.101562 85.398438 37.574219 85.398438 37.574219 C 83.835938 38.769531 82.277344 39.980469 80.726562 41.199219 C 79.203125 42.464844 77.714844 43.789062 76.222656 45.101562 C 74.738281 46.425781 73.230469 47.722656 71.789062 49.101562 C 70.367188 50.503906 68.957031 51.921875 67.554688 53.347656 C 66.855469 54.066406 66.15625 54.78125 65.460938 55.492188 L 64.417969 56.570312 L 63.425781 57.699219 C 62.109375 59.203125 60.800781 60.71875 59.507812 62.242188 C 56.855469 65.253906 54.53125 68.445312 52.164062 71.601562 C 42.976562 84.324219 36.132812 97.53125 31.027344 109.929688 C 31.027344 109.929688 32.003906 108.664062 33.472656 106.761719 C 34.207031 105.832031 35.066406 104.742188 35.984375 103.574219 C 36.917969 102.417969 37.96875 101.195312 38.992188 99.988281 C 40.023438 98.789062 41.054688 97.59375 42.019531 96.472656 C 43.019531 95.367188 43.976562 94.34375 44.78125 93.476562 C 46.402344 91.757812 47.480469 90.613281 47.480469 90.613281 C 47.480469 90.613281 46.148438 92.230469 44.152344 94.648438 C 43.65625 95.265625 43.121094 95.933594 42.550781 96.636719 C 42.007812 97.351562 41.4375 98.105469 40.847656 98.882812 C 39.671875 100.449219 38.394531 102.140625 37.164062 103.851562 C 34.800781 107.257812 32.363281 110.78125 30.742188 113.433594 C 29.070312 116.117188 27.960938 117.902344 27.960938 117.902344 C 27.289062 119.777344 26.679688 121.625 26.0625 123.457031 C 25.757812 124.375 25.457031 125.28125 25.15625 126.1875 C 24.886719 127.085938 24.621094 127.980469 24.355469 128.867188 C 23.835938 130.652344 23.324219 132.398438 22.824219 134.121094 C 22.363281 135.839844 21.941406 137.523438 21.519531 139.1875 C 21.519531 139.1875 22.339844 137.765625 23.566406 135.636719 C 24.796875 133.523438 26.570312 130.699219 28.292969 127.957031 C 30.0625 125.195312 31.9375 122.476562 33.304688 120.476562 C 33.980469 119.476562 34.621094 118.640625 35.03125 118.058594 C 35.457031 117.480469 35.699219 117.148438 35.699219 117.148438 C 35.699219 117.148438 35.410156 117.605469 34.90625 118.398438 C 34.65625 118.796875 34.351562 119.28125 34 119.839844 C 33.671875 120.394531 33.296875 121.023438 32.890625 121.710938 C 32.082031 123.101562 31.136719 124.722656 30.125 126.457031 C 29.121094 128.207031 28.140625 130.070312 27.121094 131.96875 C 26.617188 132.917969 26.113281 133.871094 25.617188 134.808594 C 25.152344 135.746094 24.695312 136.667969 24.25 137.558594 C 23.367188 139.367188 22.546875 141.054688 21.839844 142.503906 C 20.523438 145.414062 19.640625 147.355469 19.640625 147.355469 C 19.359375 148.722656 19.042969 150.082031 18.8125 151.386719 C 18.578125 152.703125 18.34375 153.988281 18.117188 155.246094 C 17.894531 156.503906 17.667969 157.746094 17.476562 158.945312 C 17.300781 160.140625 17.128906 161.308594 16.960938 162.449219 C 16.960938 162.449219 17.21875 161.882812 17.675781 160.890625 C 18.132812 159.902344 18.777344 158.5 19.621094 156.804688 C 20.453125 155.117188 21.429688 153.160156 22.476562 151.09375 C 23.566406 149.011719 24.757812 146.804688 25.945312 144.636719 C 26.527344 143.554688 27.148438 142.46875 27.773438 141.398438 C 28.390625 140.34375 29 139.304688 29.589844 138.292969 C 30.183594 137.296875 30.742188 136.339844 31.304688 135.429688 C 31.875 134.523438 32.414062 133.664062 32.914062 132.875 C 33.914062 131.3125 34.75 130.011719 35.332031 129.101562 C 35.621094 128.652344 35.855469 128.300781 36.023438 128.058594 C 36.1875 127.816406 36.277344 127.6875 36.277344 127.6875 C 36.277344 127.6875 35.851562 128.386719 35.1875 129.601562 C 34.515625 130.832031 33.550781 132.59375 32.398438 134.707031 C 31.246094 136.839844 30.03125 139.320312 28.671875 142.039062 C 27.984375 143.402344 27.355469 144.792969 26.691406 146.226562 C 26.035156 147.671875 25.367188 149.136719 24.699219 150.601562 C 23.429688 153.53125 22.1875 156.496094 21.054688 159.304688 C 19.96875 162.085938 18.957031 164.726562 18.121094 166.996094 C 16.523438 171.507812 15.480469 174.585938 15.480469 174.585938 C 15.277344 177.144531 15.09375 179.421875 14.933594 181.402344 C 14.773438 183.398438 14.726562 185.058594 14.652344 186.421875 C 14.535156 189.152344 14.472656 190.597656 14.472656 190.597656 C 17.90625 188.148438 21.246094 185.515625 24.496094 182.746094 C 27.789062 179.957031 31.003906 177.03125 34.164062 173.992188 C 34.164062 173.992188 34.800781 171.980469 35.753906 168.972656 C 36.21875 167.476562 36.832031 165.726562 37.488281 163.867188 C 38.152344 162.003906 38.808594 160.042969 39.589844 158.074219 C 40.347656 156.105469 41.105469 154.160156 41.832031 152.34375 C 42.601562 150.53125 43.320312 148.84375 43.9375 147.394531 C 44.246094 146.675781 44.53125 146.023438 44.78125 145.4375 C 45.050781 144.855469 45.285156 144.347656 45.480469 143.929688 C 45.867188 143.101562 46.089844 142.621094 46.089844 142.621094 C 46.089844 142.621094 45.914062 143.066406 45.605469 143.839844 C 45.292969 144.613281 44.851562 145.722656 44.378906 147.046875 C 43.894531 148.386719 43.332031 149.949219 42.726562 151.621094 C 42.117188 153.304688 41.566406 155.089844 40.96875 156.898438 C 40.675781 157.808594 40.386719 158.710938 40.097656 159.605469 C 39.832031 160.496094 39.570312 161.375 39.320312 162.21875 C 38.824219 163.933594 38.363281 165.527344 37.964844 166.894531 C 37.25 169.640625 36.769531 171.46875 36.769531 171.46875 C 38.050781 170.210938 39.320312 168.941406 40.578125 167.652344 C 41.847656 166.359375 43.140625 165.046875 44.402344 163.726562 C 45.667969 162.390625 46.925781 161.058594 48.179688 159.734375 C 49.460938 158.386719 50.726562 157.035156 51.984375 155.667969 C 51.984375 155.667969 52.070312 154.898438 52.214844 153.550781 C 52.402344 152.195312 52.671875 150.261719 52.996094 147.9375 C 53.148438 146.785156 53.359375 145.527344 53.597656 144.191406 C 53.832031 142.863281 54.078125 141.460938 54.332031 140.011719 C 54.597656 138.558594 54.941406 137.058594 55.257812 135.535156 C 55.589844 134.015625 55.882812 132.472656 56.292969 130.925781 C 56.683594 129.378906 57.070312 127.839844 57.453125 126.320312 C 57.824219 124.804688 58.308594 123.308594 58.714844 121.867188 C 59.148438 120.429688 59.523438 119.035156 59.96875 117.71875 C 60.410156 116.402344 60.832031 115.160156 61.21875 114.011719 C 61.964844 111.71875 62.714844 109.824219 63.226562 108.496094 C 63.738281 107.171875 64.03125 106.414062 64.03125 106.414062 C 64.03125 106.414062 63.785156 107.140625 63.355469 108.410156 C 62.933594 109.683594 62.277344 111.496094 61.664062 113.683594 C 61.035156 115.871094 60.234375 118.425781 59.59375 121.171875 C 59.253906 122.542969 58.90625 123.960938 58.550781 125.398438 C 58.25 126.839844 57.941406 128.304688 57.636719 129.765625 C 56.988281 132.699219 56.554688 135.621094 56.085938 138.363281 C 55.835938 139.734375 55.695312 141.054688 55.519531 142.308594 C 55.355469 143.5625 55.203125 144.75 55.058594 145.839844 C 54.796875 148.027344 54.652344 149.84375 54.523438 151.117188 C 54.402344 152.390625 54.332031 153.117188 54.332031 153.117188 C 55.855469 151.488281 57.363281 149.847656 58.855469 148.207031 C 58.855469 148.207031 58.882812 147.6875 58.96875 146.777344 C 59.0625 145.867188 59.195312 144.5625 59.355469 143 C 59.441406 142.21875 59.527344 141.371094 59.625 140.472656 C 59.730469 139.578125 59.875 138.628906 60.007812 137.652344 C 60.296875 135.6875 60.535156 133.597656 60.941406 131.503906 C 61.332031 129.40625 61.660156 127.308594 62.089844 125.34375 C 62.523438 123.375 62.929688 121.539062 63.277344 119.96875 C 63.648438 118.394531 64.019531 117.085938 64.253906 116.171875 C 64.496094 115.253906 64.632812 114.730469 64.632812 114.730469 C 64.632812 114.730469 64.203125 116.730469 63.558594 119.730469 C 63.027344 122.730469 62.277344 126.71875 61.808594 130.699219 C 61.679688 131.691406 61.535156 132.683594 61.421875 133.660156 C 61.328125 134.632812 61.234375 135.59375 61.144531 136.523438 C 60.984375 138.378906 60.773438 140.109375 60.710938 141.582031 C 60.539062 144.53125 60.421875 146.496094 60.421875 146.496094 C 62.234375 144.53125 64.03125 142.582031 65.816406 140.640625 C 65.816406 140.640625 66.054688 138.210938 66.410156 134.5625 C 66.660156 132.730469 66.945312 130.597656 67.257812 128.304688 C 67.605469 126.015625 68.070312 123.570312 68.5 121.117188 C 69.015625 118.671875 69.558594 116.222656 70.085938 113.921875 C 70.695312 111.625 71.265625 109.480469 71.753906 107.648438 C 72.296875 105.820312 72.792969 104.296875 73.125 103.226562 C 73.464844 102.160156 73.660156 101.550781 73.660156 101.550781 C 73.660156 101.550781 73.039062 103.878906 72.113281 107.371094 C 71.730469 109.117188 71.285156 111.15625 70.808594 113.339844 C 70.554688 114.421875 70.390625 115.558594 70.183594 116.699219 C 69.988281 117.84375 69.789062 119.003906 69.589844 120.164062 C 69.214844 122.476562 68.964844 124.796875 68.675781 126.957031 C 68.410156 129.117188 68.28125 131.132812 68.117188 132.851562 C 67.949219 134.570312 67.890625 136 67.839844 137 C 67.792969 137.996094 67.765625 138.566406 67.765625 138.566406 C 69.089844 137.171875 70.339844 135.769531 71.691406 134.378906 C 73.027344 132.988281 74.355469 131.601562 75.675781 130.222656 C 77.007812 128.839844 78.398438 127.480469 79.738281 126.117188 C 80.417969 125.4375 81.066406 124.757812 81.761719 124.085938 C 82.457031 123.414062 83.152344 122.75 83.847656 122.082031 C 89.363281 116.761719 95.007812 111.65625 100.914062 107.050781 C 100.914062 107.050781 100.988281 106.839844 101.121094 106.457031 C 101.246094 106.0625 101.472656 105.511719 101.761719 104.808594 C 102.046875 104.097656 102.394531 103.238281 102.792969 102.25 C 102.992188 101.753906 103.207031 101.226562 103.429688 100.675781 C 103.664062 100.121094 103.941406 99.558594 104.214844 98.960938 C 104.769531 97.769531 105.371094 96.472656 106.007812 95.105469 C 106.722656 93.773438 107.476562 92.367188 108.257812 90.914062 C 108.648438 90.183594 109.046875 89.441406 109.449219 88.691406 C 109.867188 87.945312 110.347656 87.230469 110.800781 86.484375 C 111.726562 85.003906 112.667969 83.496094 113.609375 81.992188 C 114.640625 80.542969 115.671875 79.09375 116.691406 77.667969 C 117.207031 76.957031 117.703125 76.234375 118.222656 75.546875 C 118.761719 74.875 119.296875 74.214844 119.824219 73.5625 C 120.882812 72.257812 121.90625 70.996094 122.878906 69.796875 C 123.914062 68.652344 124.894531 67.574219 125.796875 66.574219 C 126.710938 65.578125 127.546875 64.664062 128.289062 63.851562 C 129.070312 63.085938 129.753906 62.410156 130.316406 61.859375 C 131.441406 60.753906 132.085938 60.117188 132.085938 60.117188 C 132.085938 60.117188 131.527344 60.730469 130.546875 61.800781 C 130.058594 62.335938 129.464844 62.984375 128.785156 63.726562 C 128.101562 64.460938 127.410156 65.375 126.617188 66.324219 C 125.835938 67.277344 124.992188 68.308594 124.097656 69.402344 C 123.878906 69.675781 123.652344 69.957031 123.425781 70.234375 C 123.210938 70.527344 122.996094 70.824219 122.78125 71.125 C 122.34375 71.726562 121.902344 72.335938 121.449219 72.957031 C 120.558594 74.207031 119.605469 75.457031 118.710938 76.785156 C 117.851562 78.132812 116.980469 79.503906 116.109375 80.875 C 115.679688 81.558594 115.25 82.238281 114.820312 82.917969 C 114.433594 83.621094 114.046875 84.320312 113.660156 85.019531 C 112.902344 86.402344 112.15625 87.761719 111.433594 89.078125 C 110.738281 90.40625 110.167969 91.746094 109.578125 92.976562 C 109.003906 94.210938 108.460938 95.378906 107.960938 96.457031 C 107.089844 98.65625 106.363281 100.488281 105.855469 101.769531 C 105.410156 103.078125 105.160156 103.824219 105.160156 103.824219 C 105.964844 103.238281 106.714844 102.628906 107.542969 102.070312 C 108.355469 101.511719 109.171875 100.957031 109.980469 100.398438 C 110.792969 99.851562 111.570312 99.289062 112.390625 98.757812 C 113.222656 98.246094 114.050781 97.730469 114.878906 97.21875 C 115.695312 96.714844 116.511719 96.207031 117.324219 95.703125 L 118.53125 94.953125 C 118.933594 94.703125 119.371094 94.480469 119.789062 94.246094 C 121.449219 93.332031 123.105469 92.414062 124.757812 91.503906 C 131.476562 88.042969 138.222656 85.128906 144.980469 82.652344 C 144.980469 82.652344 145.511719 82.109375 146.445312 81.167969 C 146.910156 80.691406 147.476562 80.113281 148.125 79.449219 C 148.453125 79.121094 148.796875 78.765625 149.164062 78.390625 C 149.535156 78.027344 149.957031 77.664062 150.378906 77.269531 C 152.097656 75.734375 154.027344 73.835938 156.339844 72.023438 C 156.902344 71.558594 157.476562 71.082031 158.058594 70.601562 C 158.648438 70.125 159.21875 69.613281 159.855469 69.167969 C 161.105469 68.238281 162.371094 67.292969 163.640625 66.351562 L 164.59375 65.636719 C 164.914062 65.40625 165.25 65.191406 165.578125 64.96875 C 166.238281 64.523438 166.894531 64.082031 167.546875 63.644531 C 168.199219 63.203125 168.847656 62.765625 169.488281 62.332031 C 169.808594 62.117188 170.128906 61.902344 170.445312 61.6875 C 170.769531 61.488281 171.097656 61.292969 171.417969 61.097656 C 174.003906 59.535156 176.386719 58 178.550781 56.871094 C 180.691406 55.703125 182.453125 54.664062 183.753906 54.058594 C 185.035156 53.417969 185.769531 53.050781 185.769531 53.050781 C 185.769531 53.050781 185.136719 53.414062 184.035156 54.050781 C 183.488281 54.378906 182.804688 54.730469 182.0625 55.210938 C 181.320312 55.6875 180.480469 56.21875 179.5625 56.796875 C 178.652344 57.375 177.664062 58 176.617188 58.660156 C 175.609375 59.367188 174.546875 60.109375 173.445312 60.878906 C 172.898438 61.253906 172.34375 61.644531 171.777344 62.035156 C 171.5 62.230469 171.214844 62.425781 170.929688 62.625 C 170.65625 62.835938 170.378906 63.046875 170.101562 63.257812 C 169 64.105469 167.882812 64.964844 166.765625 65.824219 C 166.214844 66.253906 165.636719 66.65625 165.109375 67.117188 C 164.582031 67.5625 164.054688 68.011719 163.53125 68.457031 C 162.488281 69.339844 161.460938 70.203125 160.472656 71.042969 C 158.597656 72.796875 156.847656 74.433594 155.351562 75.835938 C 153.953125 77.300781 152.785156 78.515625 151.972656 79.367188 C 151.566406 79.789062 151.246094 80.121094 151.027344 80.34375 C 150.816406 80.570312 150.710938 80.707031 150.710938 80.707031 C 156.304688 79.003906 161.734375 77.414062 167.3125 76.222656 C 168 76.0625 168.683594 75.90625 169.371094 75.75 L 170.386719 75.511719 L 171.4375 75.3125 C 172.820312 75.042969 174.199219 74.773438 175.570312 74.507812 C 176.910156 74.203125 178.335938 74.027344 179.699219 73.789062 C 181.078125 73.570312 182.414062 73.304688 183.789062 73.113281 C 183.789062 73.113281 184.335938 72.804688 185.296875 72.265625 C 186.261719 71.730469 187.617188 70.917969 189.296875 70.019531 C 191.003906 69.164062 192.972656 68.101562 195.144531 67.050781 C 196.238281 66.542969 197.371094 66.019531 198.527344 65.488281 C 199.109375 65.21875 199.6875 64.949219 200.273438 64.675781 C 200.871094 64.425781 201.472656 64.175781 202.066406 63.925781 C 203.273438 63.425781 204.472656 62.921875 205.660156 62.429688 C 206.25 62.171875 206.847656 61.949219 207.445312 61.734375 C 208.035156 61.515625 208.621094 61.300781 209.199219 61.085938 C 210.351562 60.652344 211.46875 60.234375 212.527344 59.839844 C 213.625 59.480469 214.664062 59.136719 215.625 58.820312 C 217.546875 58.1875 219.148438 57.640625 220.300781 57.324219 C 221.445312 56.988281 222.101562 56.796875 222.101562 56.796875 C 222.101562 56.796875 221.550781 56.992188 220.589844 57.34375 C 220.109375 57.519531 219.523438 57.730469 218.855469 57.972656 C 218.199219 58.234375 217.460938 58.53125 216.652344 58.855469 C 215.847656 59.175781 214.976562 59.523438 214.054688 59.894531 C 213.59375 60.078125 213.125 60.265625 212.644531 60.460938 C 212.179688 60.667969 211.707031 60.878906 211.222656 61.09375 C 210.261719 61.523438 209.269531 61.96875 208.257812 62.417969 C 207.757812 62.644531 207.25 62.867188 206.742188 63.09375 C 206.246094 63.339844 205.742188 63.585938 205.246094 63.832031 C 201.222656 65.753906 197.359375 67.875 194.519531 69.488281 C 191.734375 71.160156 189.878906 72.277344 189.878906 72.277344 C 191.148438 72.136719 192.40625 72 193.664062 71.863281 C 194.917969 71.726562 196.144531 71.554688 197.410156 71.472656 C 199.925781 71.285156 202.355469 70.992188 204.835938 70.894531 C 206.058594 70.8125 207.277344 70.734375 208.488281 70.652344 C 209.707031 70.605469 210.921875 70.5625 212.125 70.519531 C 212.726562 70.492188 213.324219 70.46875 213.921875 70.441406 C 214.515625 70.414062 215.101562 70.378906 215.726562 70.378906 C 216.957031 70.351562 218.175781 70.324219 219.386719 70.296875 C 229.09375 70.085938 238.5625 70.21875 247.699219 70.5 C 257.277344 70.800781 265.980469 70.265625 273.386719 67.644531 C 264.753906 61.371094 254.546875 54.835938 242.101562 48.851562 C 229.648438 42.894531 214.898438 37.441406 197.027344 34.515625 C 188.070312 33.050781 178.335938 32.390625 167.789062 32.796875 C 157.25 33.226562 145.898438 34.773438 133.894531 38.160156 C 121.914062 41.558594 109.238281 46.816406 96.546875 54.945312 C 95.730469 55.425781 94.972656 55.988281 94.1875 56.527344 C 93.402344 57.074219 92.621094 57.625 91.835938 58.175781 C 91.042969 58.738281 90.253906 59.304688 89.460938 59.863281 C 88.675781 60.445312 87.851562 60.992188 87.097656 61.628906 C 85.5625 62.867188 84.011719 64.132812 82.453125 65.429688 C 81.675781 66.085938 80.890625 66.742188 80.109375 67.398438 C 79.34375 68.082031 78.605469 68.796875 77.851562 69.507812 C 71.707031 75.128906 65.941406 81.625 60.578125 88.691406 C 61.679688 87.007812 62.90625 85.378906 64.105469 83.769531 C 65.316406 82.164062 66.460938 80.5625 67.761719 79.035156 C 69.027344 77.503906 70.292969 75.988281 71.550781 74.503906 C 72.863281 73.046875 74.207031 71.636719 75.527344 70.242188 C 76.1875 69.550781 76.847656 68.863281 77.507812 68.171875 C 78.171875 67.492188 78.808594 66.796875 79.515625 66.167969 C 80.898438 64.886719 82.269531 63.628906 83.636719 62.390625 C 86.320312 59.863281 89.210938 57.695312 91.984375 55.515625 C 103.222656 46.96875 114.710938 40.898438 125.753906 36.546875 C 127.304688 35.886719 128.917969 35.351562 130.523438 34.796875 C 132.117188 34.253906 133.726562 33.710938 135.351562 33.164062 C 136.96875 32.636719 138.628906 32.210938 140.273438 31.746094 C 141.921875 31.300781 143.558594 30.828125 145.222656 30.425781 C 146.886719 30.0625 148.5625 29.699219 150.253906 29.332031 C 151.929688 28.976562 153.597656 28.605469 155.304688 28.359375 C 158.710938 27.824219 162.074219 27.238281 165.519531 26.941406 C 168.5 26.640625 171.421875 26.433594 174.285156 26.304688 L 174.285156 26.339844 C 174.285156 26.339844 175.015625 26.320312 176.429688 26.285156 C 177.136719 26.265625 178.011719 26.242188 179.054688 26.214844 C 179.1875 26.214844 179.320312 26.210938 179.457031 26.207031 L 179.660156 26.199219 L 179.730469 26.199219 C 179.957031 26.199219 180.1875 26.203125 180.429688 26.210938 C 181.03125 26.21875 181.675781 26.226562 182.359375 26.238281 C 185.074219 26.292969 188.578125 26.253906 192.179688 26.574219 C 193.082031 26.632812 194.019531 26.695312 194.992188 26.757812 C 198.121094 27.039062 201.167969 27.410156 204.117188 27.859375 C 215.613281 29.617188 225.769531 32.433594 234.816406 35.664062 C 243.867188 38.910156 251.8125 42.550781 258.886719 46.292969 C 265.980469 50.074219 272.164062 53.875 277.683594 57.640625 C 288.625 65.109375 296.820312 72.148438 302.984375 77.96875 C 308.328125 83.527344 313.417969 89.617188 318.1875 96.179688 C 329.550781 111.859375 338.925781 130.441406 344.46875 150.953125 C 347.25 161.191406 349.113281 171.882812 349.933594 182.800781 L 350.109375 184.847656 C 350.183594 185.53125 350.171875 186.21875 350.207031 186.902344 C 350.257812 188.277344 350.304688 189.652344 350.355469 191.03125 L 350.433594 193.097656 L 350.449219 193.613281 L 350.460938 193.875 C 350.464844 193.902344 350.464844 194.167969 350.46875 194.007812 L 350.453125 195.074219 C 350.433594 196.492188 350.410156 197.914062 350.390625 199.339844 L 350.359375 201.476562 C 350.339844 202.183594 350.359375 202.921875 350.296875 203.589844 C 350.203125 204.957031 350.117188 206.324219 350.023438 207.695312 C 349.929688 209.066406 349.859375 210.4375 349.746094 211.816406 C 349.582031 213.203125 349.421875 214.589844 349.257812 215.980469 C 347.964844 227.09375 345.554688 238.179688 342.039062 248.96875 C 338.523438 259.753906 333.902344 270.242188 328.277344 280.175781 C 317.042969 300.058594 301.738281 317.667969 283.894531 331.507812 C 266.078125 345.382812 245.753906 355.449219 224.96875 361.257812 C 214.582031 364.175781 204.078125 366.058594 193.714844 367 C 191.121094 367.214844 188.542969 367.5 185.96875 367.535156 C 184.683594 367.585938 183.398438 367.632812 182.117188 367.675781 L 180.203125 367.746094 L 179.722656 367.761719 L 179.273438 367.761719 L 178.308594 367.753906 C 175.734375 367.734375 173.160156 367.746094 170.679688 367.601562 C 169.429688 367.542969 168.1875 367.511719 166.941406 367.433594 C 165.695312 367.335938 164.453125 367.242188 163.214844 367.144531 C 153.3125 366.355469 143.753906 364.667969 134.6875 362.351562 C 125.617188 360.027344 117.027344 357.078125 109.042969 353.628906 C 93.0625 346.722656 79.496094 338.011719 68.476562 329.117188 C 67.113281 327.984375 65.746094 326.898438 64.449219 325.78125 C 63.160156 324.644531 61.894531 323.53125 60.652344 322.4375 C 59.445312 321.304688 58.257812 320.191406 57.09375 319.097656 C 56.507812 318.558594 55.945312 318 55.394531 317.4375 C 54.84375 316.886719 54.296875 316.335938 53.757812 315.789062 C 49.449219 311.417969 45.683594 307.203125 42.488281 303.226562 C 36.042969 295.316406 31.65625 288.570312 28.816406 283.902344 C 27.355469 281.585938 26.363281 279.734375 25.652344 278.511719 C 24.953125 277.28125 24.589844 276.648438 24.589844 276.648438 C 24.589844 276.648438 24.941406 277.289062 25.613281 278.535156 C 26.296875 279.773438 27.25 281.644531 28.664062 283.988281 C 31.410156 288.726562 35.660156 295.570312 41.964844 303.644531 C 45.085938 307.703125 48.777344 312.015625 53.019531 316.503906 C 53.550781 317.0625 54.089844 317.628906 54.632812 318.199219 C 55.171875 318.773438 55.726562 319.34375 56.308594 319.898438 C 57.457031 321.023438 58.625 322.171875 59.816406 323.335938 C 61.046875 324.464844 62.296875 325.613281 63.570312 326.785156 C 64.851562 327.941406 66.207031 329.0625 67.554688 330.234375 C 78.476562 339.429688 91.996094 348.523438 108.050781 355.863281 C 116.074219 359.53125 124.734375 362.710938 133.910156 365.265625 C 143.082031 367.816406 152.785156 369.742188 162.875 370.757812 C 164.136719 370.882812 165.402344 371.007812 166.671875 371.132812 C 167.949219 371.238281 169.238281 371.300781 170.523438 371.386719 C 173.121094 371.589844 175.664062 371.628906 178.238281 371.703125 L 179.207031 371.730469 L 179.722656 371.742188 L 180.214844 371.734375 C 180.867188 371.726562 181.519531 371.714844 182.175781 371.707031 C 183.484375 371.6875 184.796875 371.667969 186.117188 371.648438 C 188.753906 371.664062 191.398438 371.429688 194.054688 371.265625 C 204.691406 370.519531 215.511719 368.816406 226.261719 366.035156 C 247.765625 360.507812 268.972656 350.574219 287.75 336.578125 C 306.539062 322.621094 322.863281 304.644531 335.046875 284.105469 C 341.144531 273.84375 346.222656 262.957031 350.148438 251.707031 C 354.082031 240.457031 356.859375 228.84375 358.472656 217.15625 C 358.671875 215.695312 358.871094 214.234375 359.074219 212.777344 C 359.226562 211.300781 359.335938 209.808594 359.46875 208.328125 C 359.597656 206.84375 359.722656 205.359375 359.847656 203.882812 C 359.925781 203.128906 359.921875 202.4375 359.957031 201.71875 L 360.03125 199.582031 C 360.085938 198.160156 360.136719 196.738281 360.1875 195.320312 L 360.222656 194.253906 L 360.210938 193.039062 "/></g><path style=" stroke:none;fill-rule:nonzero;fill:#c2945f;fill-opacity:1;" d="M 149.011719 225.566406 C 149.011719 225.566406 152.164062 191.238281 201.167969 180.757812 C 242.066406 172.007812 247.816406 146.597656 247.816406 146.597656 C 247.816406 146.597656 250.386719 197.285156 204.472656 210.140625 C 204.472656 210.140625 229.796875 195.632812 234.195312 175.929688 C 234.195312 175.929688 220.738281 185.4375 203.003906 188.878906 C 171.703125 194.949219 159.214844 206.832031 149.011719 225.566406 "/><g clip-rule="nonzero" clip-path="url(#4709c1fc7f)"><path style=" stroke:none;fill-rule:nonzero;fill:#c2945f;fill-opacity:1;" d="M 155.441406 224.070312 C 155.441406 224.070312 175.207031 195.828125 222.957031 211.042969 C 262.804688 223.742188 280.40625 204.535156 280.40625 204.535156 C 280.40625 204.535156 257.488281 249.816406 211.246094 238.195312 C 211.246094 238.195312 240.433594 238.164062 254.023438 223.242188 C 254.023438 223.242188 237.621094 224.820312 220.523438 219.007812 C 190.332031 208.746094 173.59375 212.867188 155.441406 224.070312 "/></g><path style=" stroke:none;fill-rule:nonzero;fill:#c2945f;fill-opacity:1;" d="M 161.765625 225.957031 C 161.765625 225.957031 192.941406 211.25 226.847656 248.152344 C 255.140625 278.949219 279.953125 271.007812 279.953125 271.007812 C 279.953125 271.007812 237.585938 298.949219 203.207031 265.914062 C 203.207031 265.914062 228.5625 280.371094 247.765625 274.15625 C 247.765625 274.15625 232.742188 267.386719 220.78125 253.855469 C 199.660156 229.96875 183.082031 225.238281 161.765625 225.957031 "/><g clip-rule="nonzero" clip-path="url(#5d68857581)"><path style=" stroke:none;fill-rule:nonzero;fill:#c2945f;fill-opacity:1;" d="M 166.316406 230.738281 C 166.316406 230.738281 200.679688 233.433594 211.808594 282.300781 C 221.09375 323.074219 246.578125 328.492188 246.578125 328.492188 C 246.578125 328.492188 195.929688 331.726562 182.472656 285.988281 C 182.472656 285.988281 197.3125 311.121094 217.070312 315.257812 C 217.070312 315.257812 207.382812 301.925781 203.710938 284.242188 C 197.226562 253.023438 185.183594 240.691406 166.316406 230.738281 "/></g><path style=" stroke:none;fill-rule:nonzero;fill:#c2945f;fill-opacity:1;" d="M 185.917969 144.238281 C 181.234375 111.046875 139.796875 111.222656 128.542969 122.320312 C 122.46875 128.316406 124.867188 135.667969 128.203125 140.101562 C 129.503906 141.828125 132.136719 141.832031 133.351562 140.046875 C 133.484375 139.855469 133.539062 139.726562 133.539062 139.726562 C 136.210938 140.757812 137.972656 139.605469 139.042969 138.265625 C 142.734375 135.074219 143.511719 130.679688 143.71875 128.167969 C 150.238281 123.632812 162.542969 124.144531 169.15625 129.414062 C 179.230469 137.4375 182.210938 153.480469 157.902344 177.761719 C 139.457031 196.183594 113.71875 221.273438 125.644531 240.933594 C 137.570312 260.597656 167.867188 262.53125 167.867188 262.53125 C 94.378906 233.199219 191.398438 183.078125 185.917969 144.238281 "/><path style=" stroke:none;fill-rule:nonzero;fill:#c2945f;fill-opacity:1;" d="M 139.175781 139.71875 C 136.882812 142.003906 133.945312 141.621094 133.945312 141.621094 C 132.832031 142.550781 131.476562 142.667969 130.324219 142.523438 C 132.449219 144.878906 140.695312 153.730469 144.269531 153.472656 C 145.894531 153.359375 139.453125 147.292969 139.175781 139.71875 "/></g></svg>