<svg xmlns="http://www.w3.org/2000/svg" xmlns:xlink="http://www.w3.org/1999/xlink" width="500" zoomAndPan="magnify" viewBox="0 0 375 374.999991" height="500" preserveAspectRatio="xMidYMid meet" version="1.2"><defs><clipPath id="2e970911cb"><path d="M 218.289062 147.238281 L 258.789062 147.238281 L 258.789062 187.738281 L 218.289062 187.738281 Z M 218.289062 147.238281 "/></clipPath></defs><g id="fdbf9aa2b3"><path style=" stroke:none;fill-rule:nonzero;fill:#ff5f6f;fill-opacity:1;" d="M 271.964844 85.78125 C 181.179688 157.363281 127.191406 222.300781 65.386719 297.953125 C 160.390625 297.515625 257.285156 231.582031 316.40625 153.207031 L 267.417969 151.789062 L 335.210938 125.71875 C 360.828125 84.363281 375.34375 41.347656 373.257812 3.84375 C 323.714844 8.089844 281.765625 18.121094 246.242188 32.035156 L 193.453125 96.023438 L 209.949219 48.769531 C 81.386719 117.171875 56.140625 240.207031 51.25 282.566406 C 101.976562 210.914062 187.136719 116.8125 271.964844 85.78125 Z M 271.964844 85.78125 "/><path style=" stroke:none;fill-rule:nonzero;fill:#ffc502;fill-opacity:1;" d="M 5.683594 370.300781 C 27.144531 344.851562 46.59375 320.929688 65.386719 297.953125 C 127.191406 222.300781 181.179688 157.363281 271.964844 85.78125 C 187.136719 116.8125 101.976562 210.914062 51.25 282.566406 C 18.289062 329.148438 -0.15625 366.261719 5.683594 370.300781 Z M 5.683594 370.300781 "/><path style=" stroke:none;fill-rule:nonzero;fill:#cb6ce6;fill-opacity:1;" d="M 363.695312 312.886719 C 336.277344 330.109375 307.175781 344.28125 277.292969 352.550781 C 262.148438 356.410156 247.378906 358.332031 232.070312 358.300781 C 228.800781 358.210938 224.6875 358.007812 221.445312 357.527344 C 220.996094 357.492188 220.542969 357.394531 220.078125 357.316406 L 224.867188 350.160156 C 226.1875 347.929688 227.71875 345.453125 228.800781 341.183594 C 229.308594 339.015625 229.640625 336.132812 228.917969 332.855469 C 228.230469 329.558594 226.308594 326.378906 224.3125 324.382812 C 220.125 320.292969 216.777344 319.355469 213.851562 318.40625 C 210.9375 317.582031 208.386719 317.207031 205.941406 316.90625 C 196.363281 315.9375 188.066406 316.382812 179.421875 317.027344 C 162.371094 318.527344 145.785156 321.613281 129.757812 326.226562 C 113.863281 331.308594 98.464844 337.363281 83.425781 344.058594 C 68.65625 351.398438 54.082031 358.96875 40.636719 368.542969 L 41.25 369.765625 C 70.472656 355.984375 101.046875 344.824219 132.414062 337.183594 C 148.128906 333.460938 164.097656 330.707031 180.171875 329.785156 C 188.183594 329.386719 196.304688 329.242188 204.183594 330.226562 C 207.996094 330.804688 212.183594 331.617188 214.628906 333.882812 C 217.121094 336.09375 215.410156 340.15625 213.460938 343.429688 C 211.464844 346.832031 208.988281 350.078125 206.976562 353.753906 C 206.015625 355.601562 205.054688 357.582031 204.875 359.964844 C 204.574219 362.367188 206 364.996094 207.9375 366.21875 C 215.832031 370.644531 224.234375 370.015625 232.371094 370.285156 C 248.671875 370.203125 264.910156 366.960938 280.339844 361.875 C 311.210938 351.457031 339.578125 334.585938 364.613281 313.914062 Z M 363.695312 312.886719 "/><g clip-rule="nonzero" clip-path="url(#2e970911cb)"><path style=" stroke:none;fill-rule:nonzero;fill:#ff5f6f;fill-opacity:1;" d="M 224.65625 187.421875 C 224.585938 187.417969 224.535156 187.410156 224.492188 187.40625 Z M 252.339844 147.320312 C 252.296875 147.3125 252.242188 147.308594 252.171875 147.304688 Z M 258.460938 181.285156 C 258.464844 181.242188 258.46875 181.191406 258.472656 181.121094 Z M 258.429688 181.644531 C 258.429688 181.808594 258.425781 181.96875 258.425781 182.109375 L 258.445312 182.082031 C 258.464844 182.875 258.46875 183.648438 258.457031 184.40625 C 258.4375 185.402344 258.421875 186.378906 258.402344 187.351562 C 257.871094 187.34375 257.339844 187.332031 256.8125 187.324219 L 255.917969 187.296875 C 255.320312 187.277344 254.722656 187.261719 254.121094 187.253906 C 252.914062 187.238281 251.6875 187.253906 250.410156 187.332031 L 250.484375 187.355469 L 248.050781 187.21875 C 247.609375 187.234375 247.480469 187.335938 246.757812 187.375 C 247.101562 187.265625 245.355469 187.363281 244.902344 187.269531 C 244.328125 187.3125 244.917969 187.339844 245.070312 187.386719 C 242.738281 187.492188 240.878906 187.3125 238.328125 187.386719 C 240.871094 187.238281 240.878906 187.273438 242.625 187.214844 C 242.394531 187.207031 242.183594 187.199219 241.992188 187.199219 C 241.441406 187.210938 240.835938 187.222656 240.0625 187.214844 C 240.046875 187.214844 240.03125 187.21875 240.015625 187.21875 L 240.238281 187.28125 C 239.941406 187.269531 239.714844 187.238281 239.429688 187.261719 L 239.585938 187.304688 C 239.492188 187.304688 239.257812 187.300781 238.929688 187.292969 C 237.953125 187.402344 236.335938 187.261719 235.628906 187.3125 L 235.703125 187.320312 L 235.613281 187.3125 C 235.476562 187.324219 235.378906 187.34375 235.324219 187.371094 C 234.96875 187.363281 234.628906 187.34375 234.289062 187.324219 L 234.320312 187.34375 C 234.238281 187.324219 234.128906 187.3125 233.996094 187.304688 C 233.984375 187.300781 233.972656 187.300781 233.960938 187.300781 C 233.421875 187.265625 232.53125 187.277344 231.625 187.277344 L 231.949219 187.355469 L 230.488281 187.355469 L 230.484375 187.339844 L 229.839844 187.3125 C 229.96875 187.328125 230.089844 187.351562 230.199219 187.378906 C 230.042969 187.371094 229.921875 187.363281 229.835938 187.347656 C 228.972656 187.335938 227.964844 187.222656 226.984375 187.28125 C 227.636719 187.257812 227.792969 187.375 227.734375 187.429688 L 225.46875 187.320312 C 226.144531 187.386719 225.25 187.390625 224.375 187.382812 C 224.359375 187.390625 224.390625 187.402344 224.492188 187.410156 L 224.132812 187.382812 C 223.96875 187.382812 223.8125 187.378906 223.671875 187.378906 L 223.699219 187.398438 C 222.90625 187.417969 222.132812 187.421875 221.371094 187.410156 C 220.375 187.390625 219.398438 187.375 218.425781 187.355469 C 218.4375 186.824219 218.445312 186.292969 218.457031 185.765625 L 218.484375 184.867188 C 218.5 184.273438 218.515625 183.675781 218.523438 183.070312 C 218.539062 181.859375 218.527344 180.636719 218.449219 179.359375 L 218.425781 179.433594 L 218.5625 177 C 218.546875 176.554688 218.441406 176.429688 218.40625 175.703125 C 218.515625 176.050781 218.417969 174.304688 218.511719 173.847656 C 218.46875 173.277344 218.4375 173.863281 218.394531 174.019531 C 218.289062 171.683594 218.46875 169.828125 218.390625 167.277344 C 218.542969 169.816406 218.503906 169.828125 218.566406 171.570312 C 218.574219 171.339844 218.578125 171.132812 218.582031 170.9375 C 218.566406 170.390625 218.558594 169.78125 218.5625 169.007812 C 218.5625 168.992188 218.5625 168.976562 218.5625 168.960938 L 218.496094 169.1875 C 218.511719 168.890625 218.539062 168.664062 218.519531 168.378906 L 218.472656 168.535156 C 218.472656 168.441406 218.480469 168.207031 218.488281 167.875 C 218.378906 166.902344 218.519531 165.285156 218.46875 164.578125 L 218.460938 164.652344 L 218.464844 164.5625 C 218.457031 164.425781 218.4375 164.324219 218.410156 164.269531 C 218.414062 163.917969 218.433594 163.574219 218.457031 163.238281 L 218.4375 163.269531 C 218.457031 163.1875 218.46875 163.078125 218.476562 162.945312 C 218.480469 162.933594 218.480469 162.921875 218.480469 162.910156 C 218.515625 162.371094 218.503906 161.480469 218.503906 160.574219 L 218.425781 160.898438 L 218.425781 159.433594 L 218.441406 159.433594 L 218.46875 158.789062 C 218.449219 158.917969 218.429688 159.039062 218.402344 159.148438 C 218.410156 158.992188 218.417969 158.867188 218.429688 158.78125 C 218.445312 157.921875 218.558594 156.910156 218.5 155.933594 C 218.523438 156.585938 218.40625 156.742188 218.351562 156.683594 L 218.464844 154.417969 C 218.394531 155.089844 218.390625 154.195312 218.398438 153.324219 C 218.390625 153.308594 218.382812 153.335938 218.371094 153.441406 L 218.402344 153.082031 C 218.402344 152.917969 218.402344 152.757812 218.40625 152.621094 L 218.386719 152.644531 C 218.363281 151.851562 218.363281 151.078125 218.375 150.320312 C 218.390625 149.324219 218.410156 148.347656 218.425781 147.375 C 218.960938 147.382812 219.488281 147.394531 220.019531 147.402344 L 220.914062 147.429688 C 221.511719 147.449219 222.109375 147.464844 222.710938 147.472656 C 223.917969 147.488281 225.140625 147.472656 226.421875 147.394531 L 226.347656 147.371094 L 228.78125 147.507812 C 229.222656 147.492188 229.347656 147.390625 230.074219 147.351562 C 229.730469 147.460938 231.472656 147.363281 231.929688 147.457031 C 232.5 147.414062 231.914062 147.386719 231.757812 147.339844 C 234.09375 147.234375 235.949219 147.417969 238.5 147.339844 C 235.960938 147.488281 235.949219 147.453125 234.207031 147.511719 C 234.4375 147.519531 234.644531 147.527344 234.839844 147.527344 C 235.390625 147.515625 235.996094 147.503906 236.769531 147.511719 C 236.785156 147.511719 236.800781 147.507812 236.816406 147.507812 L 236.589844 147.445312 C 236.890625 147.457031 237.113281 147.488281 237.402344 147.464844 L 237.242188 147.421875 C 237.335938 147.421875 237.574219 147.425781 237.902344 147.433594 C 238.878906 147.324219 240.492188 147.464844 241.199219 147.414062 L 241.128906 147.40625 L 241.21875 147.414062 C 241.351562 147.402344 241.453125 147.382812 241.507812 147.355469 C 241.859375 147.363281 242.203125 147.382812 242.542969 147.402344 L 242.511719 147.382812 C 242.59375 147.402344 242.703125 147.414062 242.835938 147.421875 C 242.847656 147.425781 242.859375 147.425781 242.871094 147.425781 C 243.410156 147.460938 244.300781 147.449219 245.207031 147.449219 L 244.878906 147.371094 L 246.34375 147.371094 L 246.347656 147.386719 L 246.988281 147.417969 C 246.863281 147.398438 246.742188 147.375 246.632812 147.347656 C 246.789062 147.355469 246.910156 147.363281 246.996094 147.378906 C 247.859375 147.390625 248.867188 147.503906 249.847656 147.445312 C 249.195312 147.46875 249.039062 147.351562 249.097656 147.296875 L 251.363281 147.40625 C 250.6875 147.339844 251.582031 147.335938 252.457031 147.34375 C 252.472656 147.335938 252.441406 147.324219 252.339844 147.316406 L 252.699219 147.34375 C 252.863281 147.34375 253.019531 147.347656 253.160156 147.347656 L 253.132812 147.328125 C 253.925781 147.308594 254.699219 147.304688 255.460938 147.316406 C 256.457031 147.335938 257.433594 147.351562 258.40625 147.371094 C 258.394531 147.902344 258.386719 148.433594 258.375 148.960938 L 258.347656 149.859375 C 258.332031 150.457031 258.316406 151.050781 258.308594 151.65625 C 258.292969 152.859375 258.304688 154.085938 258.382812 155.363281 L 258.40625 155.289062 L 258.269531 157.722656 C 258.285156 158.167969 258.390625 158.292969 258.425781 159.019531 C 258.316406 158.671875 258.414062 160.417969 258.320312 160.875 C 258.363281 161.445312 258.394531 160.859375 258.4375 160.703125 C 258.542969 163.039062 258.363281 164.894531 258.441406 167.445312 C 258.289062 164.90625 258.328125 164.894531 258.265625 163.148438 C 258.257812 163.382812 258.253906 163.589844 258.25 163.785156 C 258.265625 164.332031 258.273438 164.941406 258.269531 165.714844 C 258.269531 165.730469 258.269531 165.742188 258.269531 165.757812 L 258.335938 165.535156 C 258.320312 165.832031 258.292969 166.058594 258.3125 166.34375 L 258.359375 166.1875 C 258.359375 166.28125 258.351562 166.515625 258.34375 166.847656 C 258.453125 167.820312 258.3125 169.4375 258.363281 170.144531 L 258.371094 170.070312 L 258.367188 170.160156 C 258.375 170.296875 258.394531 170.398438 258.421875 170.449219 C 258.417969 170.804688 258.398438 171.144531 258.375 171.484375 L 258.394531 171.457031 C 258.378906 171.535156 258.363281 171.644531 258.355469 171.777344 C 258.355469 171.789062 258.355469 171.800781 258.351562 171.816406 C 258.316406 172.351562 258.328125 173.242188 258.332031 174.152344 L 258.40625 173.824219 L 258.410156 175.289062 L 258.394531 175.292969 L 258.363281 175.933594 C 258.382812 175.808594 258.40625 175.6875 258.433594 175.578125 C 258.425781 175.734375 258.414062 175.855469 258.402344 175.941406 C 258.390625 176.804688 258.277344 177.8125 258.335938 178.789062 C 258.3125 178.136719 258.429688 177.980469 258.480469 178.042969 L 258.371094 180.304688 C 258.441406 179.632812 258.441406 180.527344 258.4375 181.398438 C 258.445312 181.414062 258.453125 181.386719 258.464844 181.28125 Z M 258.347656 176.160156 L 258.359375 176.09375 C 258.355469 176.09375 258.355469 176.097656 258.351562 176.097656 Z M 218.484375 154.023438 C 218.46875 154.003906 218.457031 153.90625 218.449219 153.789062 C 218.4375 154.117188 218.4375 154.394531 218.464844 154.371094 Z M 218.480469 158.566406 L 218.46875 158.632812 C 218.472656 158.628906 218.476562 158.625 218.480469 158.625 Z M 218.625 179.84375 C 218.753906 179.28125 218.621094 179.007812 218.671875 178.320312 C 218.679688 178.265625 218.683594 178.203125 218.6875 178.148438 C 218.679688 178.214844 218.675781 178.265625 218.671875 178.320312 C 218.628906 178.714844 218.515625 179.15625 218.625 179.84375 Z M 218.683594 180.765625 C 218.675781 181.03125 218.671875 181.339844 218.683594 181.554688 C 218.695312 181.222656 218.695312 180.945312 218.683594 180.765625 Z M 219.121094 152.160156 C 219.117188 152.253906 219.109375 152.335938 219.101562 152.40625 C 219.105469 152.523438 219.113281 152.621094 219.121094 152.6875 Z M 223.738281 186.65625 L 223.214844 186.65625 C 223.308594 186.664062 223.390625 186.667969 223.460938 186.675781 C 223.574219 186.671875 223.671875 186.664062 223.738281 186.65625 Z M 225.011719 147.632812 C 224.746094 147.625 224.4375 147.621094 224.222656 147.628906 C 224.554688 147.640625 224.832031 147.644531 225.011719 147.632812 Z M 225.421875 187.3125 L 225.074219 187.296875 C 225.058594 187.308594 224.957031 187.320312 224.839844 187.332031 C 225.171875 187.339844 225.449219 187.34375 225.421875 187.3125 Z M 227.628906 147.632812 C 227.566406 147.625 227.515625 147.625 227.457031 147.621094 C 227.066406 147.574219 226.625 147.460938 225.9375 147.570312 C 226.496094 147.699219 226.769531 147.566406 227.457031 147.621094 C 227.515625 147.625 227.574219 147.632812 227.628906 147.632812 Z M 229.6875 187.308594 C 229.683594 187.304688 229.679688 187.300781 229.679688 187.300781 L 229.617188 187.296875 Z M 247.210938 147.429688 L 247.144531 147.417969 C 247.148438 147.421875 247.152344 147.421875 247.152344 147.425781 Z M 250.894531 187.15625 C 250.335938 187.027344 250.0625 187.160156 249.375 187.105469 C 249.316406 187.097656 249.257812 187.09375 249.203125 187.089844 C 249.265625 187.097656 249.316406 187.101562 249.375 187.105469 C 249.765625 187.152344 250.207031 187.265625 250.894531 187.15625 Z M 251.757812 147.429688 C 251.773438 147.417969 251.871094 147.40625 251.992188 147.394531 C 251.660156 147.382812 251.382812 147.382812 251.40625 147.414062 Z M 252.609375 187.09375 C 252.277344 187.085938 251.996094 187.082031 251.820312 187.09375 C 252.085938 187.101562 252.394531 187.105469 252.609375 187.09375 Z M 253.617188 148.070312 C 253.523438 148.0625 253.441406 148.054688 253.371094 148.046875 C 253.253906 148.054688 253.15625 148.058594 253.089844 148.070312 Z M 257.730469 182.316406 C 257.726562 182.203125 257.71875 182.105469 257.710938 182.039062 L 257.710938 182.5625 C 257.714844 182.472656 257.722656 182.386719 257.730469 182.316406 Z M 258.148438 153.957031 C 258.15625 153.695312 258.15625 153.386719 258.148438 153.171875 C 258.136719 153.503906 258.132812 153.78125 258.148438 153.957031 Z M 258.15625 156.40625 C 258.203125 156.011719 258.316406 155.570312 258.207031 154.882812 C 258.078125 155.445312 258.210938 155.714844 258.15625 156.40625 C 258.152344 156.460938 258.144531 156.519531 258.144531 156.578125 C 258.152344 156.511719 258.152344 156.460938 258.15625 156.40625 Z M 258.363281 180.355469 L 258.347656 180.703125 C 258.363281 180.722656 258.375 180.820312 258.382812 180.9375 C 258.394531 180.605469 258.394531 180.328125 258.363281 180.355469 Z M 218.371094 153.4375 C 218.367188 153.480469 218.363281 153.535156 218.355469 153.605469 Z M 218.371094 153.4375 "/></g></g></svg>